<svg width="24" height="22" viewBox="0 0 24 22" fill="none" xmlns="http://www.w3.org/2000/svg">
<path d="M19 5.16667H22.5C22.8094 5.16667 23.1061 5.28958 23.3249 5.50838C23.5437 5.72717 23.6666 6.02391 23.6666 6.33333V20.3333C23.6666 20.6428 23.5437 20.9395 23.3249 21.1583C23.1061 21.3771 22.8094 21.5 22.5 21.5H1.49998C1.19056 21.5 0.893814 21.3771 0.675022 21.1583C0.456229 20.9395 0.333313 20.6428 0.333313 20.3333V1.66667C0.333313 1.35725 0.456229 1.0605 0.675022 0.841709C0.893814 0.622916 1.19056 0.5 1.49998 0.5H19V5.16667ZM2.66665 7.5V19.1667H21.3333V7.5H2.66665ZM2.66665 2.83333V5.16667H16.6666V2.83333H2.66665ZM15.5 12.1667H19V14.5H15.5V12.1667Z" fill="#7A7A7A"/>
</svg>
