<svg width="22" height="22" viewBox="0 0 22 22" fill="none" xmlns="http://www.w3.org/2000/svg">
<path d="M14.5 0.5C15.144 0.5 15.6667 1.02267 15.6667 1.66667V6.33333C15.6667 6.97733 15.144 7.5 14.5 7.5H12.1667V9.83333H16.8333C17.4773 9.83333 18 10.356 18 11V14.5H20.3333C20.9773 14.5 21.5 15.0227 21.5 15.6667V20.3333C21.5 20.9773 20.9773 21.5 20.3333 21.5H13.3333C12.6893 21.5 12.1667 20.9773 12.1667 20.3333V15.6667C12.1667 15.0227 12.6893 14.5 13.3333 14.5H15.6667V12.1667H6.33333V14.5H8.66667C9.31067 14.5 9.83333 15.0227 9.83333 15.6667V20.3333C9.83333 20.9773 9.31067 21.5 8.66667 21.5H1.66667C1.02267 21.5 0.5 20.9773 0.5 20.3333V15.6667C0.5 15.0227 1.02267 14.5 1.66667 14.5H4V11C4 10.356 4.52267 9.83333 5.16667 9.83333H9.83333V7.5H7.5C6.856 7.5 6.33333 6.97733 6.33333 6.33333V1.66667C6.33333 1.02267 6.856 0.5 7.5 0.5H14.5ZM7.5 16.8333H2.83333V19.1667H7.5V16.8333ZM19.1667 16.8333H14.5V19.1667H19.1667V16.8333ZM13.3333 2.83333H8.66667V5.16667H13.3333V2.83333Z" fill="#7A7A7A"/>
</svg>
