<svg width="23" height="24" viewBox="0 0 23 24" fill="none" xmlns="http://www.w3.org/2000/svg">
<path d="M1.83335 23.6667C1.52393 23.6667 1.22719 23.5437 1.0084 23.325C0.789604 23.1062 0.666687 22.8094 0.666687 22.5V1.49999C0.666687 1.19058 0.789604 0.893829 1.0084 0.675037C1.22719 0.456245 1.52393 0.333328 1.83335 0.333328H18.1667C18.4761 0.333328 18.7729 0.456245 18.9916 0.675037C19.2104 0.893829 19.3334 1.19058 19.3334 1.49999V4.99999H17V2.66666H3.00002V21.3333H17V19H19.3334V22.5C19.3334 22.8094 19.2104 23.1062 18.9916 23.325C18.7729 23.5437 18.4761 23.6667 18.1667 23.6667H1.83335ZM17 16.6667V13.1667H8.83335V10.8333H17V7.33333L22.8334 12L17 16.6667Z" fill="#7A7A7A"/>
</svg>
