<svg width="24" height="24" viewBox="0 0 24 24" fill="none" xmlns="http://www.w3.org/2000/svg">
<path d="M12 23.6667C5.55648 23.6667 0.333313 18.4435 0.333313 12C0.333313 5.5565 5.55648 0.333328 12 0.333328C18.4435 0.333328 23.6666 5.5565 23.6666 12C23.6666 18.4435 18.4435 23.6667 12 23.6667ZM12 21.3333C14.4753 21.3333 16.8493 20.35 18.5996 18.5997C20.35 16.8493 21.3333 14.4753 21.3333 12C21.3333 9.52464 20.35 7.15067 18.5996 5.40033C16.8493 3.64999 14.4753 2.66666 12 2.66666C9.52463 2.66666 7.15066 3.64999 5.40032 5.40033C3.64998 7.15067 2.66665 9.52464 2.66665 12C2.66665 14.4753 3.64998 16.8493 5.40032 18.5997C7.15066 20.35 9.52463 21.3333 12 21.3333ZM6.16665 13.1667H16.6666V15.5H12V19L6.16665 13.1667ZM12 8.49999V4.99999L17.8333 10.8333H7.33331V8.49999H12Z" fill="#7A7A7A"/>
</svg>
