<svg width="788" height="413" viewBox="0 0 788 413" fill="none" xmlns="http://www.w3.org/2000/svg">
<g filter="url(#filter0_d_2_197)">
<rect x="26" y="26" width="736" height="361" rx="12" fill="white"/>
</g>
<path d="M47.12 61.16C46.2347 61.16 45.4133 61.048 44.656 60.824C43.8987 60.5893 43.2587 60.2747 42.736 59.88L43.36 58.264C43.8827 58.6373 44.4533 58.9253 45.072 59.128C45.7013 59.3307 46.384 59.432 47.12 59.432C47.9627 59.432 48.576 59.2933 48.96 59.016C49.344 58.728 49.536 58.36 49.536 57.912C49.536 57.5387 49.3973 57.2453 49.12 57.032C48.8533 56.8187 48.3893 56.6427 47.728 56.504L45.968 56.136C43.9627 55.7093 42.96 54.68 42.96 53.048C42.96 52.344 43.1467 51.7307 43.52 51.208C43.8933 50.6853 44.4107 50.28 45.072 49.992C45.7333 49.704 46.496 49.56 47.36 49.56C48.128 49.56 48.848 49.6773 49.52 49.912C50.192 50.136 50.752 50.456 51.2 50.872L50.576 52.408C49.6907 51.6613 48.6133 51.288 47.344 51.288C46.608 51.288 46.032 51.4427 45.616 51.752C45.2 52.0613 44.992 52.4667 44.992 52.968C44.992 53.352 45.12 53.6613 45.376 53.896C45.632 54.12 46.0693 54.296 46.688 54.424L48.432 54.792C49.488 55.016 50.272 55.368 50.784 55.848C51.3067 56.328 51.568 56.968 51.568 57.768C51.568 58.44 51.3867 59.032 51.024 59.544C50.6613 60.056 50.144 60.456 49.472 60.744C48.8107 61.0213 48.0267 61.16 47.12 61.16ZM55.7098 61.16C55.1444 61.16 54.6378 61.0533 54.1898 60.84C53.7524 60.616 53.4058 60.3173 53.1497 59.944C52.9044 59.5707 52.7818 59.1493 52.7818 58.68C52.7818 58.104 52.9311 57.6507 53.2298 57.32C53.5284 56.9787 54.0138 56.7333 54.6858 56.584C55.3578 56.4347 56.2591 56.36 57.3898 56.36H57.9498V56.024C57.9498 55.4907 57.8324 55.1067 57.5978 54.872C57.3631 54.6373 56.9684 54.52 56.4138 54.52C55.9764 54.52 55.5284 54.5893 55.0698 54.728C54.6111 54.856 54.1471 55.0587 53.6778 55.336L53.1018 53.976C53.3791 53.784 53.7044 53.6187 54.0778 53.48C54.4618 53.3307 54.8618 53.2187 55.2778 53.144C55.7044 53.0587 56.1044 53.016 56.4778 53.016C57.6191 53.016 58.4671 53.2827 59.0218 53.816C59.5764 54.3387 59.8538 55.1547 59.8538 56.264V61H57.9818V59.752C57.8004 60.1893 57.5124 60.536 57.1178 60.792C56.7231 61.0373 56.2538 61.16 55.7098 61.16ZM56.1258 59.784C56.6484 59.784 57.0804 59.6027 57.4218 59.24C57.7738 58.8773 57.9498 58.4187 57.9498 57.864V57.512H57.4058C56.4031 57.512 55.7044 57.592 55.3098 57.752C54.9258 57.9013 54.7338 58.1787 54.7338 58.584C54.7338 58.936 54.8564 59.224 55.1018 59.448C55.3471 59.672 55.6884 59.784 56.1258 59.784ZM64.6038 61.16C63.6758 61.16 62.9878 60.9093 62.5398 60.408C62.1024 59.896 61.8838 59.1493 61.8838 58.168V49.72H63.8838V58.072C63.8838 59.032 64.2891 59.512 65.0998 59.512C65.2171 59.512 65.3344 59.5067 65.4518 59.496C65.5691 59.4853 65.6811 59.464 65.7878 59.432L65.7558 61.016C65.3718 61.112 64.9878 61.16 64.6038 61.16ZM70.771 61.16C69.8857 61.16 69.123 60.9947 68.483 60.664C67.843 60.3333 67.347 59.864 66.995 59.256C66.6537 58.648 66.483 57.928 66.483 57.096C66.483 56.2853 66.6483 55.576 66.979 54.968C67.3203 54.36 67.7843 53.8853 68.371 53.544C68.9683 53.192 69.6457 53.016 70.403 53.016C71.5123 53.016 72.387 53.368 73.027 54.072C73.6777 54.776 74.003 55.736 74.003 56.952V57.544H68.403C68.5523 58.9413 69.3523 59.64 70.803 59.64C71.2403 59.64 71.6777 59.576 72.115 59.448C72.5523 59.3093 72.9523 59.096 73.315 58.808L73.875 60.152C73.5017 60.4613 73.0323 60.7067 72.467 60.888C71.9017 61.0693 71.3363 61.16 70.771 61.16ZM70.483 54.376C69.8963 54.376 69.4217 54.5573 69.059 54.92C68.6963 55.2827 68.4777 55.7733 68.403 56.392H72.339C72.2963 55.7413 72.115 55.2453 71.795 54.904C71.4857 54.552 71.0483 54.376 70.483 54.376ZM78.4509 61.16C77.7895 61.16 77.1709 61.08 76.5949 60.92C76.0189 60.76 75.5389 60.5307 75.1549 60.232L75.6669 58.92C76.0615 59.1867 76.5042 59.3947 76.9949 59.544C77.4855 59.6827 77.9762 59.752 78.4669 59.752C78.9789 59.752 79.3575 59.6667 79.6029 59.496C79.8589 59.3147 79.9869 59.08 79.9869 58.792C79.9869 58.344 79.6562 58.056 78.9949 57.928L77.3949 57.624C76.0402 57.368 75.3629 56.664 75.3629 55.512C75.3629 55 75.5015 54.5573 75.7789 54.184C76.0669 53.8107 76.4615 53.5227 76.9629 53.32C77.4642 53.1173 78.0402 53.016 78.6909 53.016C79.2455 53.016 79.7789 53.096 80.2909 53.256C80.8029 53.4053 81.2402 53.6347 81.6029 53.944L81.0589 55.256C80.7495 55 80.3762 54.7973 79.9389 54.648C79.5122 54.4987 79.1015 54.424 78.7069 54.424C78.1842 54.424 77.7949 54.5147 77.5389 54.696C77.2935 54.8773 77.1709 55.1173 77.1709 55.416C77.1709 55.8853 77.4749 56.1733 78.0829 56.28L79.6829 56.584C80.3762 56.712 80.8989 56.9467 81.2509 57.288C81.6135 57.6293 81.7949 58.088 81.7949 58.664C81.7949 59.4427 81.4909 60.056 80.8829 60.504C80.2749 60.9413 79.4642 61.16 78.4509 61.16ZM93.1519 61.16C91.9785 61.16 90.9705 60.9253 90.1279 60.456C89.2959 59.976 88.6559 59.304 88.2079 58.44C87.7599 57.5653 87.5359 56.536 87.5359 55.352C87.5359 54.168 87.7599 53.144 88.2079 52.28C88.6559 51.416 89.2959 50.7493 90.1279 50.28C90.9705 49.8 91.9785 49.56 93.1519 49.56C93.9092 49.56 94.6239 49.6773 95.2959 49.912C95.9785 50.1467 96.5385 50.4827 96.9759 50.92L96.3039 52.552C95.8239 52.1467 95.3332 51.8533 94.8319 51.672C94.3305 51.48 93.7919 51.384 93.2159 51.384C92.0745 51.384 91.2052 51.7307 90.6079 52.424C90.0105 53.1067 89.7119 54.0827 89.7119 55.352C89.7119 56.6213 90.0105 57.6027 90.6079 58.296C91.2052 58.9893 92.0745 59.336 93.2159 59.336C93.7919 59.336 94.3305 59.2453 94.8319 59.064C95.3332 58.872 95.8239 58.5733 96.3039 58.168L96.9759 59.8C96.5385 60.2267 95.9785 60.5627 95.2959 60.808C94.6239 61.0427 93.9092 61.16 93.1519 61.16ZM98.5713 61V49.72H100.571V54.312C100.838 53.8853 101.195 53.5653 101.643 53.352C102.091 53.128 102.587 53.016 103.131 53.016C104.977 53.016 105.899 54.088 105.899 56.232V61H103.899V56.328C103.899 55.72 103.782 55.2773 103.547 55C103.323 54.7227 102.971 54.584 102.491 54.584C101.905 54.584 101.435 54.7707 101.083 55.144C100.742 55.5067 100.571 55.992 100.571 56.6V61H98.5713ZM110.507 61.16C109.941 61.16 109.435 61.0533 108.987 60.84C108.549 60.616 108.203 60.3173 107.947 59.944C107.701 59.5707 107.579 59.1493 107.579 58.68C107.579 58.104 107.728 57.6507 108.027 57.32C108.325 56.9787 108.811 56.7333 109.483 56.584C110.155 56.4347 111.056 56.36 112.187 56.36H112.747V56.024C112.747 55.4907 112.629 55.1067 112.395 54.872C112.16 54.6373 111.765 54.52 111.211 54.52C110.773 54.52 110.325 54.5893 109.867 54.728C109.408 54.856 108.944 55.0587 108.475 55.336L107.899 53.976C108.176 53.784 108.501 53.6187 108.875 53.48C109.259 53.3307 109.659 53.2187 110.075 53.144C110.501 53.0587 110.901 53.016 111.275 53.016C112.416 53.016 113.264 53.2827 113.819 53.816C114.373 54.3387 114.651 55.1547 114.651 56.264V61H112.779V59.752C112.597 60.1893 112.309 60.536 111.915 60.792C111.52 61.0373 111.051 61.16 110.507 61.16ZM110.923 59.784C111.445 59.784 111.877 59.6027 112.219 59.24C112.571 58.8773 112.747 58.4187 112.747 57.864V57.512H112.203C111.2 57.512 110.501 57.592 110.107 57.752C109.723 57.9013 109.531 58.1787 109.531 58.584C109.531 58.936 109.653 59.224 109.899 59.448C110.144 59.672 110.485 59.784 110.923 59.784ZM116.681 61V53.176H118.633V54.552C119.017 53.624 119.838 53.112 121.097 53.016L121.705 52.968L121.833 54.664L120.681 54.776C119.369 54.904 118.713 55.576 118.713 56.792V61H116.681ZM126.983 61.16C124.914 61.16 123.879 60.136 123.879 58.088V54.68H122.375V53.176H123.879V50.84H125.879V53.176H128.247V54.68H125.879V57.976C125.879 58.488 125.991 58.872 126.215 59.128C126.439 59.384 126.802 59.512 127.303 59.512C127.453 59.512 127.607 59.496 127.767 59.464C127.927 59.4213 128.093 59.3787 128.263 59.336L128.567 60.808C128.375 60.9147 128.13 61 127.831 61.064C127.543 61.128 127.261 61.16 126.983 61.16Z" fill="#7A7A7A"/>
<path d="M43.9621 102V92.13H47.8681C48.9321 92.13 49.7441 92.3773 50.3041 92.872C50.8735 93.3667 51.1581 94.0713 51.1581 94.986C51.1581 95.714 50.9575 96.3113 50.5561 96.778C50.1641 97.2447 49.6041 97.548 48.8761 97.688C49.3055 97.8373 49.6741 98.2013 49.9821 98.78L51.7181 102H50.4581L48.7501 98.836C48.5355 98.444 48.2881 98.178 48.0081 98.038C47.7281 97.898 47.3595 97.828 46.9021 97.828H45.1101V102H43.9621ZM45.1101 96.918H47.7001C49.2495 96.918 50.0241 96.274 50.0241 94.986C50.0241 93.7167 49.2495 93.082 47.7001 93.082H45.1101V96.918ZM53.1734 104.52V95.196H54.2794V96.414C54.4847 95.994 54.788 95.6673 55.1894 95.434C55.6 95.1913 56.076 95.07 56.6174 95.07C57.224 95.07 57.7514 95.2147 58.1994 95.504C58.6567 95.784 59.0067 96.19 59.2494 96.722C59.5014 97.2447 59.6274 97.87 59.6274 98.598C59.6274 99.3167 59.5014 99.942 59.2494 100.474C59.0067 100.997 58.6567 101.403 58.1994 101.692C57.7514 101.981 57.224 102.126 56.6174 102.126C56.0947 102.126 55.628 102.009 55.2174 101.776C54.8067 101.543 54.5034 101.221 54.3074 100.81V104.52H53.1734ZM56.3794 101.216C57.014 101.216 57.5227 100.992 57.9054 100.544C58.288 100.087 58.4794 99.438 58.4794 98.598C58.4794 97.7487 58.288 97.1 57.9054 96.652C57.5227 96.204 57.014 95.98 56.3794 95.98C55.7447 95.98 55.236 96.204 54.8534 96.652C54.4707 97.1 54.2794 97.7487 54.2794 98.598C54.2794 99.438 54.4707 100.087 54.8534 100.544C55.236 100.992 55.7447 101.216 56.3794 101.216ZM68.0672 102.126C66.9565 102.126 66.0932 101.888 65.4772 101.412C64.8612 100.927 64.5532 100.25 64.5532 99.382C64.5532 98.7753 64.7165 98.2573 65.0432 97.828C65.3792 97.3987 65.8225 97.1047 66.3732 96.946C65.8785 96.7593 65.4912 96.4607 65.2112 96.05C64.9312 95.6393 64.7912 95.168 64.7912 94.636C64.7912 93.8053 65.0852 93.1613 65.6732 92.704C66.2705 92.2373 67.0685 92.004 68.0672 92.004C69.0659 92.004 69.8639 92.2373 70.4612 92.704C71.0585 93.1613 71.3572 93.8053 71.3572 94.636C71.3572 95.168 71.2125 95.644 70.9232 96.064C70.6432 96.4747 70.2605 96.7687 69.7752 96.946C70.3259 97.1047 70.7645 97.3987 71.0912 97.828C71.4179 98.2573 71.5812 98.7753 71.5812 99.382C71.5812 100.25 71.2732 100.927 70.6572 101.412C70.0412 101.888 69.1779 102.126 68.0672 102.126ZM68.0672 96.526C68.7485 96.526 69.2805 96.3673 69.6632 96.05C70.0552 95.7233 70.2512 95.2847 70.2512 94.734C70.2512 94.174 70.0552 93.74 69.6632 93.432C69.2805 93.1147 68.7485 92.956 68.0672 92.956C67.3859 92.956 66.8539 93.1147 66.4712 93.432C66.0885 93.74 65.8972 94.174 65.8972 94.734C65.8972 95.2847 66.0885 95.7233 66.4712 96.05C66.8539 96.3673 67.3859 96.526 68.0672 96.526ZM68.0672 101.174C69.6725 101.174 70.4752 100.553 70.4752 99.312C70.4752 98.0893 69.6725 97.478 68.0672 97.478C66.4619 97.478 65.6592 98.0893 65.6592 99.312C65.6592 100.553 66.4619 101.174 68.0672 101.174ZM73.1437 102V100.572H74.5717V102H73.1437ZM79.6473 102.126C78.5179 102.126 77.6593 101.692 77.0713 100.824C76.4833 99.956 76.1893 98.7007 76.1893 97.058C76.1893 95.406 76.4833 94.1507 77.0713 93.292C77.6593 92.4333 78.5179 92.004 79.6473 92.004C80.7859 92.004 81.6446 92.4333 82.2233 93.292C82.8113 94.1413 83.1053 95.392 83.1053 97.044C83.1053 98.696 82.8066 99.956 82.2093 100.824C81.6213 101.692 80.7673 102.126 79.6473 102.126ZM79.6473 101.132C80.4313 101.132 81.0099 100.801 81.3833 100.138C81.7659 99.4753 81.9573 98.444 81.9573 97.044C81.9573 95.644 81.7706 94.622 81.3973 93.978C81.0239 93.3247 80.4406 92.998 79.6473 92.998C78.8633 92.998 78.2799 93.3247 77.8973 93.978C77.5239 94.6313 77.3373 95.6533 77.3373 97.044C77.3373 98.444 77.5239 99.4753 77.8973 100.138C78.2799 100.801 78.8633 101.132 79.6473 101.132ZM88.0418 102.126C86.9125 102.126 86.0538 101.692 85.4658 100.824C84.8778 99.956 84.5838 98.7007 84.5838 97.058C84.5838 95.406 84.8778 94.1507 85.4658 93.292C86.0538 92.4333 86.9125 92.004 88.0418 92.004C89.1805 92.004 90.0391 92.4333 90.6178 93.292C91.2058 94.1413 91.4998 95.392 91.4998 97.044C91.4998 98.696 91.2011 99.956 90.6038 100.824C90.0158 101.692 89.1618 102.126 88.0418 102.126ZM88.0418 101.132C88.8258 101.132 89.4045 100.801 89.7778 100.138C90.1605 99.4753 90.3518 98.444 90.3518 97.044C90.3518 95.644 90.1651 94.622 89.7918 93.978C89.4185 93.3247 88.8351 92.998 88.0418 92.998C87.2578 92.998 86.6745 93.3247 86.2918 93.978C85.9185 94.6313 85.7318 95.6533 85.7318 97.044C85.7318 98.444 85.9185 99.4753 86.2918 100.138C86.6745 100.801 87.2578 101.132 88.0418 101.132ZM96.4363 102.126C95.307 102.126 94.4483 101.692 93.8603 100.824C93.2723 99.956 92.9783 98.7007 92.9783 97.058C92.9783 95.406 93.2723 94.1507 93.8603 93.292C94.4483 92.4333 95.307 92.004 96.4363 92.004C97.575 92.004 98.4337 92.4333 99.0123 93.292C99.6003 94.1413 99.8943 95.392 99.8943 97.044C99.8943 98.696 99.5957 99.956 98.9983 100.824C98.4103 101.692 97.5563 102.126 96.4363 102.126ZM96.4363 101.132C97.2203 101.132 97.799 100.801 98.1723 100.138C98.555 99.4753 98.7463 98.444 98.7463 97.044C98.7463 95.644 98.5597 94.622 98.1863 93.978C97.813 93.3247 97.2297 92.998 96.4363 92.998C95.6523 92.998 95.069 93.3247 94.6863 93.978C94.313 94.6313 94.1263 95.6533 94.1263 97.044C94.1263 98.444 94.313 99.4753 94.6863 100.138C95.069 100.801 95.6523 101.132 96.4363 101.132ZM101.513 102V100.572H102.941V102H101.513ZM108.016 102.126C106.887 102.126 106.028 101.692 105.44 100.824C104.852 99.956 104.558 98.7007 104.558 97.058C104.558 95.406 104.852 94.1507 105.44 93.292C106.028 92.4333 106.887 92.004 108.016 92.004C109.155 92.004 110.014 92.4333 110.592 93.292C111.18 94.1413 111.474 95.392 111.474 97.044C111.474 98.696 111.176 99.956 110.578 100.824C109.99 101.692 109.136 102.126 108.016 102.126ZM108.016 101.132C108.8 101.132 109.379 100.801 109.752 100.138C110.135 99.4753 110.326 98.444 110.326 97.044C110.326 95.644 110.14 94.622 109.766 93.978C109.393 93.3247 108.81 92.998 108.016 92.998C107.232 92.998 106.649 93.3247 106.266 93.978C105.893 94.6313 105.706 95.6533 105.706 97.044C105.706 98.444 105.893 99.4753 106.266 100.138C106.649 100.801 107.232 101.132 108.016 101.132ZM116.411 102.126C115.282 102.126 114.423 101.692 113.835 100.824C113.247 99.956 112.953 98.7007 112.953 97.058C112.953 95.406 113.247 94.1507 113.835 93.292C114.423 92.4333 115.282 92.004 116.411 92.004C117.55 92.004 118.408 92.4333 118.987 93.292C119.575 94.1413 119.869 95.392 119.869 97.044C119.869 98.696 119.57 99.956 118.973 100.824C118.385 101.692 117.531 102.126 116.411 102.126ZM116.411 101.132C117.195 101.132 117.774 100.801 118.147 100.138C118.53 99.4753 118.721 98.444 118.721 97.044C118.721 95.644 118.534 94.622 118.161 93.978C117.788 93.3247 117.204 92.998 116.411 92.998C115.627 92.998 115.044 93.3247 114.661 93.978C114.288 94.6313 114.101 95.6533 114.101 97.044C114.101 98.444 114.288 99.4753 114.661 100.138C115.044 100.801 115.627 101.132 116.411 101.132ZM124.805 102.126C123.676 102.126 122.817 101.692 122.229 100.824C121.641 99.956 121.347 98.7007 121.347 97.058C121.347 95.406 121.641 94.1507 122.229 93.292C122.817 92.4333 123.676 92.004 124.805 92.004C125.944 92.004 126.803 92.4333 127.381 93.292C127.969 94.1413 128.263 95.392 128.263 97.044C128.263 98.696 127.965 99.956 127.367 100.824C126.779 101.692 125.925 102.126 124.805 102.126ZM124.805 101.132C125.589 101.132 126.168 100.801 126.541 100.138C126.924 99.4753 127.115 98.444 127.115 97.044C127.115 95.644 126.929 94.622 126.555 93.978C126.182 93.3247 125.599 92.998 124.805 92.998C124.021 92.998 123.438 93.3247 123.055 93.978C122.682 94.6313 122.495 95.6533 122.495 97.044C122.495 98.444 122.682 99.4753 123.055 100.138C123.438 100.801 124.021 101.132 124.805 101.132Z" fill="#BDBDBD"/>
<path d="M43.9621 166V156.13H47.8681C48.9321 156.13 49.7441 156.377 50.3041 156.872C50.8735 157.367 51.1581 158.071 51.1581 158.986C51.1581 159.714 50.9575 160.311 50.5561 160.778C50.1641 161.245 49.6041 161.548 48.8761 161.688C49.3055 161.837 49.6741 162.201 49.9821 162.78L51.7181 166H50.4581L48.7501 162.836C48.5355 162.444 48.2881 162.178 48.0081 162.038C47.7281 161.898 47.3595 161.828 46.9021 161.828H45.1101V166H43.9621ZM45.1101 160.918H47.7001C49.2495 160.918 50.0241 160.274 50.0241 158.986C50.0241 157.717 49.2495 157.082 47.7001 157.082H45.1101V160.918ZM53.1734 168.52V159.196H54.2794V160.414C54.4847 159.994 54.788 159.667 55.1894 159.434C55.6 159.191 56.076 159.07 56.6174 159.07C57.224 159.07 57.7514 159.215 58.1994 159.504C58.6567 159.784 59.0067 160.19 59.2494 160.722C59.5014 161.245 59.6274 161.87 59.6274 162.598C59.6274 163.317 59.5014 163.942 59.2494 164.474C59.0067 164.997 58.6567 165.403 58.1994 165.692C57.7514 165.981 57.224 166.126 56.6174 166.126C56.0947 166.126 55.628 166.009 55.2174 165.776C54.8067 165.543 54.5034 165.221 54.3074 164.81V168.52H53.1734ZM56.3794 165.216C57.014 165.216 57.5227 164.992 57.9054 164.544C58.288 164.087 58.4794 163.438 58.4794 162.598C58.4794 161.749 58.288 161.1 57.9054 160.652C57.5227 160.204 57.014 159.98 56.3794 159.98C55.7447 159.98 55.236 160.204 54.8534 160.652C54.4707 161.1 54.2794 161.749 54.2794 162.598C54.2794 163.438 54.4707 164.087 54.8534 164.544C55.236 164.992 55.7447 165.216 56.3794 165.216ZM68.4032 166.126C67.2365 166.126 66.3359 165.706 65.7012 164.866C65.0759 164.017 64.7632 162.831 64.7632 161.31C64.7632 159.602 65.1132 158.291 65.8132 157.376C66.5132 156.461 67.4932 156.004 68.7532 156.004C69.2572 156.004 69.7612 156.111 70.2652 156.326C70.7785 156.541 71.1985 156.83 71.5252 157.194L71.1052 158.09C70.7599 157.735 70.3819 157.469 69.9712 157.292C69.5699 157.115 69.1545 157.026 68.7252 157.026C67.8105 157.026 67.1059 157.367 66.6112 158.048C66.1259 158.729 65.8832 159.742 65.8832 161.086V161.772C66.0605 161.156 66.3872 160.675 66.8632 160.33C67.3485 159.985 67.9179 159.812 68.5712 159.812C69.1499 159.812 69.6632 159.947 70.1112 160.218C70.5592 160.479 70.9092 160.843 71.1612 161.31C71.4132 161.777 71.5392 162.313 71.5392 162.92C71.5392 163.545 71.4039 164.101 71.1332 164.586C70.8719 165.062 70.5032 165.44 70.0272 165.72C69.5605 165.991 69.0192 166.126 68.4032 166.126ZM68.3332 165.146C68.9585 165.146 69.4625 164.945 69.8452 164.544C70.2372 164.143 70.4332 163.615 70.4332 162.962C70.4332 162.318 70.2372 161.795 69.8452 161.394C69.4625 160.983 68.9585 160.778 68.3332 160.778C67.7079 160.778 67.1992 160.983 66.8072 161.394C66.4245 161.795 66.2332 162.318 66.2332 162.962C66.2332 163.615 66.4245 164.143 66.8072 164.544C67.1992 164.945 67.7079 165.146 68.3332 165.146ZM73.1437 166V164.572H74.5717V166H73.1437ZM79.6473 166.126C78.5179 166.126 77.6593 165.692 77.0713 164.824C76.4833 163.956 76.1893 162.701 76.1893 161.058C76.1893 159.406 76.4833 158.151 77.0713 157.292C77.6593 156.433 78.5179 156.004 79.6473 156.004C80.7859 156.004 81.6446 156.433 82.2233 157.292C82.8113 158.141 83.1053 159.392 83.1053 161.044C83.1053 162.696 82.8066 163.956 82.2093 164.824C81.6213 165.692 80.7673 166.126 79.6473 166.126ZM79.6473 165.132C80.4313 165.132 81.0099 164.801 81.3833 164.138C81.7659 163.475 81.9573 162.444 81.9573 161.044C81.9573 159.644 81.7706 158.622 81.3973 157.978C81.0239 157.325 80.4406 156.998 79.6473 156.998C78.8633 156.998 78.2799 157.325 77.8973 157.978C77.5239 158.631 77.3373 159.653 77.3373 161.044C77.3373 162.444 77.5239 163.475 77.8973 164.138C78.2799 164.801 78.8633 165.132 79.6473 165.132ZM88.0418 166.126C86.9125 166.126 86.0538 165.692 85.4658 164.824C84.8778 163.956 84.5838 162.701 84.5838 161.058C84.5838 159.406 84.8778 158.151 85.4658 157.292C86.0538 156.433 86.9125 156.004 88.0418 156.004C89.1805 156.004 90.0391 156.433 90.6178 157.292C91.2058 158.141 91.4998 159.392 91.4998 161.044C91.4998 162.696 91.2011 163.956 90.6038 164.824C90.0158 165.692 89.1618 166.126 88.0418 166.126ZM88.0418 165.132C88.8258 165.132 89.4045 164.801 89.7778 164.138C90.1605 163.475 90.3518 162.444 90.3518 161.044C90.3518 159.644 90.1651 158.622 89.7918 157.978C89.4185 157.325 88.8351 156.998 88.0418 156.998C87.2578 156.998 86.6745 157.325 86.2918 157.978C85.9185 158.631 85.7318 159.653 85.7318 161.044C85.7318 162.444 85.9185 163.475 86.2918 164.138C86.6745 164.801 87.2578 165.132 88.0418 165.132ZM96.4363 166.126C95.307 166.126 94.4483 165.692 93.8603 164.824C93.2723 163.956 92.9783 162.701 92.9783 161.058C92.9783 159.406 93.2723 158.151 93.8603 157.292C94.4483 156.433 95.307 156.004 96.4363 156.004C97.575 156.004 98.4337 156.433 99.0123 157.292C99.6003 158.141 99.8943 159.392 99.8943 161.044C99.8943 162.696 99.5957 163.956 98.9983 164.824C98.4103 165.692 97.5563 166.126 96.4363 166.126ZM96.4363 165.132C97.2203 165.132 97.799 164.801 98.1723 164.138C98.555 163.475 98.7463 162.444 98.7463 161.044C98.7463 159.644 98.5597 158.622 98.1863 157.978C97.813 157.325 97.2297 156.998 96.4363 156.998C95.6523 156.998 95.069 157.325 94.6863 157.978C94.313 158.631 94.1263 159.653 94.1263 161.044C94.1263 162.444 94.313 163.475 94.6863 164.138C95.069 164.801 95.6523 165.132 96.4363 165.132ZM101.513 166V164.572H102.941V166H101.513ZM108.016 166.126C106.887 166.126 106.028 165.692 105.44 164.824C104.852 163.956 104.558 162.701 104.558 161.058C104.558 159.406 104.852 158.151 105.44 157.292C106.028 156.433 106.887 156.004 108.016 156.004C109.155 156.004 110.014 156.433 110.592 157.292C111.18 158.141 111.474 159.392 111.474 161.044C111.474 162.696 111.176 163.956 110.578 164.824C109.99 165.692 109.136 166.126 108.016 166.126ZM108.016 165.132C108.8 165.132 109.379 164.801 109.752 164.138C110.135 163.475 110.326 162.444 110.326 161.044C110.326 159.644 110.14 158.622 109.766 157.978C109.393 157.325 108.81 156.998 108.016 156.998C107.232 156.998 106.649 157.325 106.266 157.978C105.893 158.631 105.706 159.653 105.706 161.044C105.706 162.444 105.893 163.475 106.266 164.138C106.649 164.801 107.232 165.132 108.016 165.132ZM116.411 166.126C115.282 166.126 114.423 165.692 113.835 164.824C113.247 163.956 112.953 162.701 112.953 161.058C112.953 159.406 113.247 158.151 113.835 157.292C114.423 156.433 115.282 156.004 116.411 156.004C117.55 156.004 118.408 156.433 118.987 157.292C119.575 158.141 119.869 159.392 119.869 161.044C119.869 162.696 119.57 163.956 118.973 164.824C118.385 165.692 117.531 166.126 116.411 166.126ZM116.411 165.132C117.195 165.132 117.774 164.801 118.147 164.138C118.53 163.475 118.721 162.444 118.721 161.044C118.721 159.644 118.534 158.622 118.161 157.978C117.788 157.325 117.204 156.998 116.411 156.998C115.627 156.998 115.044 157.325 114.661 157.978C114.288 158.631 114.101 159.653 114.101 161.044C114.101 162.444 114.288 163.475 114.661 164.138C115.044 164.801 115.627 165.132 116.411 165.132ZM124.805 166.126C123.676 166.126 122.817 165.692 122.229 164.824C121.641 163.956 121.347 162.701 121.347 161.058C121.347 159.406 121.641 158.151 122.229 157.292C122.817 156.433 123.676 156.004 124.805 156.004C125.944 156.004 126.803 156.433 127.381 157.292C127.969 158.141 128.263 159.392 128.263 161.044C128.263 162.696 127.965 163.956 127.367 164.824C126.779 165.692 125.925 166.126 124.805 166.126ZM124.805 165.132C125.589 165.132 126.168 164.801 126.541 164.138C126.924 163.475 127.115 162.444 127.115 161.044C127.115 159.644 126.929 158.622 126.555 157.978C126.182 157.325 125.599 156.998 124.805 156.998C124.021 156.998 123.438 157.325 123.055 157.978C122.682 158.631 122.495 159.653 122.495 161.044C122.495 162.444 122.682 163.475 123.055 164.138C123.438 164.801 124.021 165.132 124.805 165.132Z" fill="#BDBDBD"/>
<path d="M43.9621 230V220.13H47.8681C48.9321 220.13 49.7441 220.377 50.3041 220.872C50.8735 221.367 51.1581 222.071 51.1581 222.986C51.1581 223.714 50.9575 224.311 50.5561 224.778C50.1641 225.245 49.6041 225.548 48.8761 225.688C49.3055 225.837 49.6741 226.201 49.9821 226.78L51.7181 230H50.4581L48.7501 226.836C48.5355 226.444 48.2881 226.178 48.0081 226.038C47.7281 225.898 47.3595 225.828 46.9021 225.828H45.1101V230H43.9621ZM45.1101 224.918H47.7001C49.2495 224.918 50.0241 224.274 50.0241 222.986C50.0241 221.717 49.2495 221.082 47.7001 221.082H45.1101V224.918ZM53.1734 232.52V223.196H54.2794V224.414C54.4847 223.994 54.788 223.667 55.1894 223.434C55.6 223.191 56.076 223.07 56.6174 223.07C57.224 223.07 57.7514 223.215 58.1994 223.504C58.6567 223.784 59.0067 224.19 59.2494 224.722C59.5014 225.245 59.6274 225.87 59.6274 226.598C59.6274 227.317 59.5014 227.942 59.2494 228.474C59.0067 228.997 58.6567 229.403 58.1994 229.692C57.7514 229.981 57.224 230.126 56.6174 230.126C56.0947 230.126 55.628 230.009 55.2174 229.776C54.8067 229.543 54.5034 229.221 54.3074 228.81V232.52H53.1734ZM56.3794 229.216C57.014 229.216 57.5227 228.992 57.9054 228.544C58.288 228.087 58.4794 227.438 58.4794 226.598C58.4794 225.749 58.288 225.1 57.9054 224.652C57.5227 224.204 57.014 223.98 56.3794 223.98C55.7447 223.98 55.236 224.204 54.8534 224.652C54.4707 225.1 54.2794 225.749 54.2794 226.598C54.2794 227.438 54.4707 228.087 54.8534 228.544C55.236 228.992 55.7447 229.216 56.3794 229.216ZM69.1452 230V227.886H64.5952V227.018L69.3412 220.13H70.3072V226.906H71.7772V227.886H70.3072V230H69.1452ZM69.1452 226.906V222.02L65.7852 226.906H69.1452ZM73.1437 230V228.572H74.5717V230H73.1437ZM79.6473 230.126C78.5179 230.126 77.6593 229.692 77.0713 228.824C76.4833 227.956 76.1893 226.701 76.1893 225.058C76.1893 223.406 76.4833 222.151 77.0713 221.292C77.6593 220.433 78.5179 220.004 79.6473 220.004C80.7859 220.004 81.6446 220.433 82.2233 221.292C82.8113 222.141 83.1053 223.392 83.1053 225.044C83.1053 226.696 82.8066 227.956 82.2093 228.824C81.6213 229.692 80.7673 230.126 79.6473 230.126ZM79.6473 229.132C80.4313 229.132 81.0099 228.801 81.3833 228.138C81.7659 227.475 81.9573 226.444 81.9573 225.044C81.9573 223.644 81.7706 222.622 81.3973 221.978C81.0239 221.325 80.4406 220.998 79.6473 220.998C78.8633 220.998 78.2799 221.325 77.8973 221.978C77.5239 222.631 77.3373 223.653 77.3373 225.044C77.3373 226.444 77.5239 227.475 77.8973 228.138C78.2799 228.801 78.8633 229.132 79.6473 229.132ZM88.0418 230.126C86.9125 230.126 86.0538 229.692 85.4658 228.824C84.8778 227.956 84.5838 226.701 84.5838 225.058C84.5838 223.406 84.8778 222.151 85.4658 221.292C86.0538 220.433 86.9125 220.004 88.0418 220.004C89.1805 220.004 90.0391 220.433 90.6178 221.292C91.2058 222.141 91.4998 223.392 91.4998 225.044C91.4998 226.696 91.2011 227.956 90.6038 228.824C90.0158 229.692 89.1618 230.126 88.0418 230.126ZM88.0418 229.132C88.8258 229.132 89.4045 228.801 89.7778 228.138C90.1605 227.475 90.3518 226.444 90.3518 225.044C90.3518 223.644 90.1651 222.622 89.7918 221.978C89.4185 221.325 88.8351 220.998 88.0418 220.998C87.2578 220.998 86.6745 221.325 86.2918 221.978C85.9185 222.631 85.7318 223.653 85.7318 225.044C85.7318 226.444 85.9185 227.475 86.2918 228.138C86.6745 228.801 87.2578 229.132 88.0418 229.132ZM96.4363 230.126C95.307 230.126 94.4483 229.692 93.8603 228.824C93.2723 227.956 92.9783 226.701 92.9783 225.058C92.9783 223.406 93.2723 222.151 93.8603 221.292C94.4483 220.433 95.307 220.004 96.4363 220.004C97.575 220.004 98.4337 220.433 99.0123 221.292C99.6003 222.141 99.8943 223.392 99.8943 225.044C99.8943 226.696 99.5957 227.956 98.9983 228.824C98.4103 229.692 97.5563 230.126 96.4363 230.126ZM96.4363 229.132C97.2203 229.132 97.799 228.801 98.1723 228.138C98.555 227.475 98.7463 226.444 98.7463 225.044C98.7463 223.644 98.5597 222.622 98.1863 221.978C97.813 221.325 97.2297 220.998 96.4363 220.998C95.6523 220.998 95.069 221.325 94.6863 221.978C94.313 222.631 94.1263 223.653 94.1263 225.044C94.1263 226.444 94.313 227.475 94.6863 228.138C95.069 228.801 95.6523 229.132 96.4363 229.132ZM101.513 230V228.572H102.941V230H101.513ZM108.016 230.126C106.887 230.126 106.028 229.692 105.44 228.824C104.852 227.956 104.558 226.701 104.558 225.058C104.558 223.406 104.852 222.151 105.44 221.292C106.028 220.433 106.887 220.004 108.016 220.004C109.155 220.004 110.014 220.433 110.592 221.292C111.18 222.141 111.474 223.392 111.474 225.044C111.474 226.696 111.176 227.956 110.578 228.824C109.99 229.692 109.136 230.126 108.016 230.126ZM108.016 229.132C108.8 229.132 109.379 228.801 109.752 228.138C110.135 227.475 110.326 226.444 110.326 225.044C110.326 223.644 110.14 222.622 109.766 221.978C109.393 221.325 108.81 220.998 108.016 220.998C107.232 220.998 106.649 221.325 106.266 221.978C105.893 222.631 105.706 223.653 105.706 225.044C105.706 226.444 105.893 227.475 106.266 228.138C106.649 228.801 107.232 229.132 108.016 229.132ZM116.411 230.126C115.282 230.126 114.423 229.692 113.835 228.824C113.247 227.956 112.953 226.701 112.953 225.058C112.953 223.406 113.247 222.151 113.835 221.292C114.423 220.433 115.282 220.004 116.411 220.004C117.55 220.004 118.408 220.433 118.987 221.292C119.575 222.141 119.869 223.392 119.869 225.044C119.869 226.696 119.57 227.956 118.973 228.824C118.385 229.692 117.531 230.126 116.411 230.126ZM116.411 229.132C117.195 229.132 117.774 228.801 118.147 228.138C118.53 227.475 118.721 226.444 118.721 225.044C118.721 223.644 118.534 222.622 118.161 221.978C117.788 221.325 117.204 220.998 116.411 220.998C115.627 220.998 115.044 221.325 114.661 221.978C114.288 222.631 114.101 223.653 114.101 225.044C114.101 226.444 114.288 227.475 114.661 228.138C115.044 228.801 115.627 229.132 116.411 229.132ZM124.805 230.126C123.676 230.126 122.817 229.692 122.229 228.824C121.641 227.956 121.347 226.701 121.347 225.058C121.347 223.406 121.641 222.151 122.229 221.292C122.817 220.433 123.676 220.004 124.805 220.004C125.944 220.004 126.803 220.433 127.381 221.292C127.969 222.141 128.263 223.392 128.263 225.044C128.263 226.696 127.965 227.956 127.367 228.824C126.779 229.692 125.925 230.126 124.805 230.126ZM124.805 229.132C125.589 229.132 126.168 228.801 126.541 228.138C126.924 227.475 127.115 226.444 127.115 225.044C127.115 223.644 126.929 222.622 126.555 221.978C126.182 221.325 125.599 220.998 124.805 220.998C124.021 220.998 123.438 221.325 123.055 221.978C122.682 222.631 122.495 223.653 122.495 225.044C122.495 226.444 122.682 227.475 123.055 228.138C123.438 228.801 124.021 229.132 124.805 229.132Z" fill="#BDBDBD"/>
<path d="M43.9621 294V284.13H47.8681C48.9321 284.13 49.7441 284.377 50.3041 284.872C50.8735 285.367 51.1581 286.071 51.1581 286.986C51.1581 287.714 50.9575 288.311 50.5561 288.778C50.1641 289.245 49.6041 289.548 48.8761 289.688C49.3055 289.837 49.6741 290.201 49.9821 290.78L51.7181 294H50.4581L48.7501 290.836C48.5355 290.444 48.2881 290.178 48.0081 290.038C47.7281 289.898 47.3595 289.828 46.9021 289.828H45.1101V294H43.9621ZM45.1101 288.918H47.7001C49.2495 288.918 50.0241 288.274 50.0241 286.986C50.0241 285.717 49.2495 285.082 47.7001 285.082H45.1101V288.918ZM53.1734 296.52V287.196H54.2794V288.414C54.4847 287.994 54.788 287.667 55.1894 287.434C55.6 287.191 56.076 287.07 56.6174 287.07C57.224 287.07 57.7514 287.215 58.1994 287.504C58.6567 287.784 59.0067 288.19 59.2494 288.722C59.5014 289.245 59.6274 289.87 59.6274 290.598C59.6274 291.317 59.5014 291.942 59.2494 292.474C59.0067 292.997 58.6567 293.403 58.1994 293.692C57.7514 293.981 57.224 294.126 56.6174 294.126C56.0947 294.126 55.628 294.009 55.2174 293.776C54.8067 293.543 54.5034 293.221 54.3074 292.81V296.52H53.1734ZM56.3794 293.216C57.014 293.216 57.5227 292.992 57.9054 292.544C58.288 292.087 58.4794 291.438 58.4794 290.598C58.4794 289.749 58.288 289.1 57.9054 288.652C57.5227 288.204 57.014 287.98 56.3794 287.98C55.7447 287.98 55.236 288.204 54.8534 288.652C54.4707 289.1 54.2794 289.749 54.2794 290.598C54.2794 291.438 54.4707 292.087 54.8534 292.544C55.236 292.992 55.7447 293.216 56.3794 293.216ZM65.1272 294V293.132L68.5012 289.492C68.9772 288.969 69.3179 288.493 69.5232 288.064C69.7379 287.635 69.8452 287.196 69.8452 286.748C69.8452 285.6 69.1779 285.026 67.8432 285.026C66.8445 285.026 65.9625 285.399 65.1972 286.146L64.7632 285.25C65.1272 284.877 65.5892 284.578 66.1492 284.354C66.7185 284.121 67.3159 284.004 67.9412 284.004C68.9305 284.004 69.6865 284.237 70.2092 284.704C70.7412 285.161 71.0072 285.815 71.0072 286.664C71.0072 287.252 70.8625 287.831 70.5732 288.4C70.2839 288.96 69.8405 289.557 69.2432 290.192L66.5972 293.02H71.4132V294H65.1272ZM73.1437 294V292.572H74.5717V294H73.1437ZM79.6473 294.126C78.5179 294.126 77.6593 293.692 77.0713 292.824C76.4833 291.956 76.1893 290.701 76.1893 289.058C76.1893 287.406 76.4833 286.151 77.0713 285.292C77.6593 284.433 78.5179 284.004 79.6473 284.004C80.7859 284.004 81.6446 284.433 82.2233 285.292C82.8113 286.141 83.1053 287.392 83.1053 289.044C83.1053 290.696 82.8066 291.956 82.2093 292.824C81.6213 293.692 80.7673 294.126 79.6473 294.126ZM79.6473 293.132C80.4313 293.132 81.0099 292.801 81.3833 292.138C81.7659 291.475 81.9573 290.444 81.9573 289.044C81.9573 287.644 81.7706 286.622 81.3973 285.978C81.0239 285.325 80.4406 284.998 79.6473 284.998C78.8633 284.998 78.2799 285.325 77.8973 285.978C77.5239 286.631 77.3373 287.653 77.3373 289.044C77.3373 290.444 77.5239 291.475 77.8973 292.138C78.2799 292.801 78.8633 293.132 79.6473 293.132ZM88.0418 294.126C86.9125 294.126 86.0538 293.692 85.4658 292.824C84.8778 291.956 84.5838 290.701 84.5838 289.058C84.5838 287.406 84.8778 286.151 85.4658 285.292C86.0538 284.433 86.9125 284.004 88.0418 284.004C89.1805 284.004 90.0391 284.433 90.6178 285.292C91.2058 286.141 91.4998 287.392 91.4998 289.044C91.4998 290.696 91.2011 291.956 90.6038 292.824C90.0158 293.692 89.1618 294.126 88.0418 294.126ZM88.0418 293.132C88.8258 293.132 89.4045 292.801 89.7778 292.138C90.1605 291.475 90.3518 290.444 90.3518 289.044C90.3518 287.644 90.1651 286.622 89.7918 285.978C89.4185 285.325 88.8351 284.998 88.0418 284.998C87.2578 284.998 86.6745 285.325 86.2918 285.978C85.9185 286.631 85.7318 287.653 85.7318 289.044C85.7318 290.444 85.9185 291.475 86.2918 292.138C86.6745 292.801 87.2578 293.132 88.0418 293.132ZM96.4363 294.126C95.307 294.126 94.4483 293.692 93.8603 292.824C93.2723 291.956 92.9783 290.701 92.9783 289.058C92.9783 287.406 93.2723 286.151 93.8603 285.292C94.4483 284.433 95.307 284.004 96.4363 284.004C97.575 284.004 98.4337 284.433 99.0123 285.292C99.6003 286.141 99.8943 287.392 99.8943 289.044C99.8943 290.696 99.5957 291.956 98.9983 292.824C98.4103 293.692 97.5563 294.126 96.4363 294.126ZM96.4363 293.132C97.2203 293.132 97.799 292.801 98.1723 292.138C98.555 291.475 98.7463 290.444 98.7463 289.044C98.7463 287.644 98.5597 286.622 98.1863 285.978C97.813 285.325 97.2297 284.998 96.4363 284.998C95.6523 284.998 95.069 285.325 94.6863 285.978C94.313 286.631 94.1263 287.653 94.1263 289.044C94.1263 290.444 94.313 291.475 94.6863 292.138C95.069 292.801 95.6523 293.132 96.4363 293.132ZM101.513 294V292.572H102.941V294H101.513ZM108.016 294.126C106.887 294.126 106.028 293.692 105.44 292.824C104.852 291.956 104.558 290.701 104.558 289.058C104.558 287.406 104.852 286.151 105.44 285.292C106.028 284.433 106.887 284.004 108.016 284.004C109.155 284.004 110.014 284.433 110.592 285.292C111.18 286.141 111.474 287.392 111.474 289.044C111.474 290.696 111.176 291.956 110.578 292.824C109.99 293.692 109.136 294.126 108.016 294.126ZM108.016 293.132C108.8 293.132 109.379 292.801 109.752 292.138C110.135 291.475 110.326 290.444 110.326 289.044C110.326 287.644 110.14 286.622 109.766 285.978C109.393 285.325 108.81 284.998 108.016 284.998C107.232 284.998 106.649 285.325 106.266 285.978C105.893 286.631 105.706 287.653 105.706 289.044C105.706 290.444 105.893 291.475 106.266 292.138C106.649 292.801 107.232 293.132 108.016 293.132ZM116.411 294.126C115.282 294.126 114.423 293.692 113.835 292.824C113.247 291.956 112.953 290.701 112.953 289.058C112.953 287.406 113.247 286.151 113.835 285.292C114.423 284.433 115.282 284.004 116.411 284.004C117.55 284.004 118.408 284.433 118.987 285.292C119.575 286.141 119.869 287.392 119.869 289.044C119.869 290.696 119.57 291.956 118.973 292.824C118.385 293.692 117.531 294.126 116.411 294.126ZM116.411 293.132C117.195 293.132 117.774 292.801 118.147 292.138C118.53 291.475 118.721 290.444 118.721 289.044C118.721 287.644 118.534 286.622 118.161 285.978C117.788 285.325 117.204 284.998 116.411 284.998C115.627 284.998 115.044 285.325 114.661 285.978C114.288 286.631 114.101 287.653 114.101 289.044C114.101 290.444 114.288 291.475 114.661 292.138C115.044 292.801 115.627 293.132 116.411 293.132ZM124.805 294.126C123.676 294.126 122.817 293.692 122.229 292.824C121.641 291.956 121.347 290.701 121.347 289.058C121.347 287.406 121.641 286.151 122.229 285.292C122.817 284.433 123.676 284.004 124.805 284.004C125.944 284.004 126.803 284.433 127.381 285.292C127.969 286.141 128.263 287.392 128.263 289.044C128.263 290.696 127.965 291.956 127.367 292.824C126.779 293.692 125.925 294.126 124.805 294.126ZM124.805 293.132C125.589 293.132 126.168 292.801 126.541 292.138C126.924 291.475 127.115 290.444 127.115 289.044C127.115 287.644 126.929 286.622 126.555 285.978C126.182 285.325 125.599 284.998 124.805 284.998C124.021 284.998 123.438 285.325 123.055 285.978C122.682 286.631 122.495 287.653 122.495 289.044C122.495 290.444 122.682 291.475 123.055 292.138C123.438 292.801 124.021 293.132 124.805 293.132Z" fill="#BDBDBD"/>
<path d="M100.7 358V348.13H104.606C105.67 348.13 106.482 348.377 107.042 348.872C107.612 349.367 107.896 350.071 107.896 350.986C107.896 351.714 107.696 352.311 107.294 352.778C106.902 353.245 106.342 353.548 105.614 353.688C106.044 353.837 106.412 354.201 106.72 354.78L108.456 358H107.196L105.488 354.836C105.274 354.444 105.026 354.178 104.746 354.038C104.466 353.898 104.098 353.828 103.64 353.828H101.848V358H100.7ZM101.848 352.918H104.438C105.988 352.918 106.762 352.274 106.762 350.986C106.762 349.717 105.988 349.082 104.438 349.082H101.848V352.918ZM109.912 360.52V351.196H111.018V352.414C111.223 351.994 111.526 351.667 111.928 351.434C112.338 351.191 112.814 351.07 113.356 351.07C113.962 351.07 114.49 351.215 114.938 351.504C115.395 351.784 115.745 352.19 115.988 352.722C116.24 353.245 116.366 353.87 116.366 354.598C116.366 355.317 116.24 355.942 115.988 356.474C115.745 356.997 115.395 357.403 114.938 357.692C114.49 357.981 113.962 358.126 113.356 358.126C112.833 358.126 112.366 358.009 111.956 357.776C111.545 357.543 111.242 357.221 111.046 356.81V360.52H109.912ZM113.118 357.216C113.752 357.216 114.261 356.992 114.644 356.544C115.026 356.087 115.218 355.438 115.218 354.598C115.218 353.749 115.026 353.1 114.644 352.652C114.261 352.204 113.752 351.98 113.118 351.98C112.483 351.98 111.974 352.204 111.592 352.652C111.209 353.1 111.018 353.749 111.018 354.598C111.018 355.438 111.209 356.087 111.592 356.544C111.974 356.992 112.483 357.216 113.118 357.216ZM124.805 358.126C123.676 358.126 122.817 357.692 122.229 356.824C121.641 355.956 121.347 354.701 121.347 353.058C121.347 351.406 121.641 350.151 122.229 349.292C122.817 348.433 123.676 348.004 124.805 348.004C125.944 348.004 126.803 348.433 127.381 349.292C127.969 350.141 128.263 351.392 128.263 353.044C128.263 354.696 127.965 355.956 127.367 356.824C126.779 357.692 125.925 358.126 124.805 358.126ZM124.805 357.132C125.589 357.132 126.168 356.801 126.541 356.138C126.924 355.475 127.115 354.444 127.115 353.044C127.115 351.644 126.929 350.622 126.555 349.978C126.182 349.325 125.599 348.998 124.805 348.998C124.021 348.998 123.438 349.325 123.055 349.978C122.682 350.631 122.495 351.653 122.495 353.044C122.495 354.444 122.682 355.475 123.055 356.138C123.438 356.801 124.021 357.132 124.805 357.132Z" fill="white"/>
<line x1="153.5" y1="97.5" x2="696.5" y2="97.5" stroke="#BDBDBD" stroke-linecap="round" stroke-dasharray="4 5"/>
<line x1="153.5" y1="161.5" x2="696.5" y2="161.5" stroke="#BDBDBD" stroke-linecap="round" stroke-dasharray="4 5"/>
<line x1="153.5" y1="225.5" x2="696.5" y2="225.5" stroke="#BDBDBD" stroke-linecap="round" stroke-dasharray="4 5"/>
<line x1="153.5" y1="289.5" x2="696.5" y2="289.5" stroke="#BDBDBD" stroke-linecap="round" stroke-dasharray="4 5"/>
<g clip-path="url(#clip0_2_197)">
<path fill-rule="evenodd" clip-rule="evenodd" d="M153 250.953L165.806 256.365C179.124 262.318 204.736 273.682 230.861 273.682C256.473 273.682 282.597 262.318 308.209 245C334.333 227.682 360.458 204.412 386.07 216.318C412.194 227.682 437.806 273.682 463.93 276.388C489.542 279.635 515.667 239.047 541.791 227.682C567.403 216.318 593.527 233.635 619.139 233.635C645.264 233.635 670.876 216.318 684.194 207.659L697 199V337H684.194C670.876 337 645.264 337 619.139 337C593.527 337 567.403 337 541.791 337C515.667 337 489.542 337 463.93 337C437.806 337 412.194 337 386.07 337C360.458 337 334.333 337 308.209 337C282.597 337 256.473 337 230.861 337C204.736 337 179.124 337 165.806 337H153V250.953Z" fill="url(#paint0_linear_2_197)" fill-opacity="0.3"/>
<path d="M153 250.953L165.806 256.365C179.124 262.318 204.736 273.682 230.861 273.682C256.473 273.682 282.597 262.318 308.209 245C334.333 227.682 360.458 204.412 386.07 216.318C412.194 227.682 437.806 273.682 463.93 276.388C489.542 279.635 515.667 239.047 541.791 227.682C567.403 216.318 593.527 233.635 619.139 233.635C645.264 233.635 670.876 216.318 684.194 207.659L697 199" stroke="#545DFF" stroke-width="5" stroke-linecap="round"/>
</g>
<path d="M157.533 358.126C156.404 358.126 155.545 357.692 154.957 356.824C154.369 355.956 154.075 354.701 154.075 353.058C154.075 351.406 154.369 350.151 154.957 349.292C155.545 348.433 156.404 348.004 157.533 348.004C158.672 348.004 159.53 348.433 160.109 349.292C160.697 350.141 160.991 351.392 160.991 353.044C160.991 354.696 160.692 355.956 160.095 356.824C159.507 357.692 158.653 358.126 157.533 358.126ZM157.533 357.132C158.317 357.132 158.896 356.801 159.269 356.138C159.652 355.475 159.843 354.444 159.843 353.044C159.843 351.644 159.656 350.622 159.283 349.978C158.91 349.325 158.326 348.998 157.533 348.998C156.749 348.998 156.166 349.325 155.783 349.978C155.41 350.631 155.223 351.653 155.223 353.044C155.223 354.444 155.41 355.475 155.783 356.138C156.166 356.801 156.749 357.132 157.533 357.132ZM167.006 358V355.886H162.456V355.018L167.202 348.13H168.168V354.906H169.638V355.886H168.168V358H167.006ZM167.006 354.906V350.02L163.646 354.906H167.006ZM173.984 358L178.338 348.13H179.318L183.672 358H182.482L181.39 355.48H176.252L175.174 358H173.984ZM178.814 349.474L176.672 354.514H180.984L178.842 349.474H178.814ZM184.981 360.52V351.196H186.087V352.414C186.292 351.994 186.596 351.667 186.997 351.434C187.408 351.191 187.884 351.07 188.425 351.07C189.032 351.07 189.559 351.215 190.007 351.504C190.464 351.784 190.814 352.19 191.057 352.722C191.309 353.245 191.435 353.87 191.435 354.598C191.435 355.317 191.309 355.942 191.057 356.474C190.814 356.997 190.464 357.403 190.007 357.692C189.559 357.981 189.032 358.126 188.425 358.126C187.902 358.126 187.436 358.009 187.025 357.776C186.614 357.543 186.311 357.221 186.115 356.81V360.52H184.981ZM188.187 357.216C188.822 357.216 189.33 356.992 189.713 356.544C190.096 356.087 190.287 355.438 190.287 354.598C190.287 353.749 190.096 353.1 189.713 352.652C189.33 352.204 188.822 351.98 188.187 351.98C187.552 351.98 187.044 352.204 186.661 352.652C186.278 353.1 186.087 353.749 186.087 354.598C186.087 355.438 186.278 356.087 186.661 356.544C187.044 356.992 187.552 357.216 188.187 357.216ZM193.143 358V351.196H194.249V352.414C194.613 351.593 195.36 351.14 196.489 351.056L196.895 351.014L196.979 351.994L196.265 352.078C195.621 352.134 195.131 352.339 194.795 352.694C194.459 353.039 194.291 353.515 194.291 354.122V358H193.143ZM201.574 351.07V350.076C201.574 349.693 201.635 349.339 201.756 349.012C201.887 348.685 202.106 348.363 202.414 348.046L202.96 348.452C202.755 348.676 202.606 348.886 202.512 349.082C202.419 349.269 202.363 349.455 202.344 349.642H203.002V351.07H201.574ZM205.138 358V357.132L208.512 353.492C208.988 352.969 209.329 352.493 209.534 352.064C209.749 351.635 209.856 351.196 209.856 350.748C209.856 349.6 209.189 349.026 207.854 349.026C206.855 349.026 205.973 349.399 205.208 350.146L204.774 349.25C205.138 348.877 205.6 348.578 206.16 348.354C206.729 348.121 207.327 348.004 207.952 348.004C208.941 348.004 209.697 348.237 210.22 348.704C210.752 349.161 211.018 349.815 211.018 350.664C211.018 351.252 210.873 351.831 210.584 352.4C210.295 352.96 209.851 353.557 209.254 354.192L206.608 357.02H211.424V358H205.138ZM213.532 358V357.132L216.906 353.492C217.382 352.969 217.723 352.493 217.928 352.064C218.143 351.635 218.25 351.196 218.25 350.748C218.25 349.6 217.583 349.026 216.248 349.026C215.25 349.026 214.368 349.399 213.602 350.146L213.168 349.25C213.532 348.877 213.994 348.578 214.554 348.354C215.124 348.121 215.721 348.004 216.346 348.004C217.336 348.004 218.092 348.237 218.614 348.704C219.146 349.161 219.412 349.815 219.412 350.664C219.412 351.252 219.268 351.831 218.978 352.4C218.689 352.96 218.246 353.557 217.648 354.192L215.002 357.02H219.818V358H213.532Z" fill="#BDBDBD"/>
<path d="M327.533 358.126C326.404 358.126 325.545 357.692 324.957 356.824C324.369 355.956 324.075 354.701 324.075 353.058C324.075 351.406 324.369 350.151 324.957 349.292C325.545 348.433 326.404 348.004 327.533 348.004C328.672 348.004 329.53 348.433 330.109 349.292C330.697 350.141 330.991 351.392 330.991 353.044C330.991 354.696 330.692 355.956 330.095 356.824C329.507 357.692 328.653 358.126 327.533 358.126ZM327.533 357.132C328.317 357.132 328.896 356.801 329.269 356.138C329.652 355.475 329.843 354.444 329.843 353.044C329.843 351.644 329.656 350.622 329.283 349.978C328.91 349.325 328.326 348.998 327.533 348.998C326.749 348.998 326.166 349.325 325.783 349.978C325.41 350.631 325.223 351.653 325.223 353.044C325.223 354.444 325.41 355.475 325.783 356.138C326.166 356.801 326.749 357.132 327.533 357.132ZM336.264 358.126C335.097 358.126 334.196 357.706 333.562 356.866C332.936 356.017 332.624 354.831 332.624 353.31C332.624 351.602 332.974 350.291 333.674 349.376C334.374 348.461 335.354 348.004 336.614 348.004C337.118 348.004 337.622 348.111 338.126 348.326C338.639 348.541 339.059 348.83 339.386 349.194L338.966 350.09C338.62 349.735 338.242 349.469 337.832 349.292C337.43 349.115 337.015 349.026 336.586 349.026C335.671 349.026 334.966 349.367 334.472 350.048C333.986 350.729 333.744 351.742 333.744 353.086V353.772C333.921 353.156 334.248 352.675 334.724 352.33C335.209 351.985 335.778 351.812 336.432 351.812C337.01 351.812 337.524 351.947 337.972 352.218C338.42 352.479 338.77 352.843 339.022 353.31C339.274 353.777 339.4 354.313 339.4 354.92C339.4 355.545 339.264 356.101 338.994 356.586C338.732 357.062 338.364 357.44 337.888 357.72C337.421 357.991 336.88 358.126 336.264 358.126ZM336.194 357.146C336.819 357.146 337.323 356.945 337.706 356.544C338.098 356.143 338.294 355.615 338.294 354.962C338.294 354.318 338.098 353.795 337.706 353.394C337.323 352.983 336.819 352.778 336.194 352.778C335.568 352.778 335.06 352.983 334.668 353.394C334.285 353.795 334.094 354.318 334.094 354.962C334.094 355.615 334.285 356.143 334.668 356.544C335.06 356.945 335.568 357.146 336.194 357.146ZM343.984 358L348.338 348.13H349.318L353.672 358H352.482L351.39 355.48H346.252L345.174 358H343.984ZM348.814 349.474L346.672 354.514H350.984L348.842 349.474H348.814ZM354.981 360.52V351.196H356.087V352.414C356.292 351.994 356.596 351.667 356.997 351.434C357.408 351.191 357.884 351.07 358.425 351.07C359.032 351.07 359.559 351.215 360.007 351.504C360.464 351.784 360.814 352.19 361.057 352.722C361.309 353.245 361.435 353.87 361.435 354.598C361.435 355.317 361.309 355.942 361.057 356.474C360.814 356.997 360.464 357.403 360.007 357.692C359.559 357.981 359.032 358.126 358.425 358.126C357.902 358.126 357.436 358.009 357.025 357.776C356.614 357.543 356.311 357.221 356.115 356.81V360.52H354.981ZM358.187 357.216C358.822 357.216 359.33 356.992 359.713 356.544C360.096 356.087 360.287 355.438 360.287 354.598C360.287 353.749 360.096 353.1 359.713 352.652C359.33 352.204 358.822 351.98 358.187 351.98C357.552 351.98 357.044 352.204 356.661 352.652C356.278 353.1 356.087 353.749 356.087 354.598C356.087 355.438 356.278 356.087 356.661 356.544C357.044 356.992 357.552 357.216 358.187 357.216ZM363.143 358V351.196H364.249V352.414C364.613 351.593 365.36 351.14 366.489 351.056L366.895 351.014L366.979 351.994L366.265 352.078C365.621 352.134 365.131 352.339 364.795 352.694C364.459 353.039 364.291 353.515 364.291 354.122V358H363.143ZM371.574 351.07V350.076C371.574 349.693 371.635 349.339 371.756 349.012C371.887 348.685 372.106 348.363 372.414 348.046L372.96 348.452C372.755 348.676 372.606 348.886 372.512 349.082C372.419 349.269 372.363 349.455 372.344 349.642H373.002V351.07H371.574ZM375.138 358V357.132L378.512 353.492C378.988 352.969 379.329 352.493 379.534 352.064C379.749 351.635 379.856 351.196 379.856 350.748C379.856 349.6 379.189 349.026 377.854 349.026C376.855 349.026 375.973 349.399 375.208 350.146L374.774 349.25C375.138 348.877 375.6 348.578 376.16 348.354C376.729 348.121 377.327 348.004 377.952 348.004C378.941 348.004 379.697 348.237 380.22 348.704C380.752 349.161 381.018 349.815 381.018 350.664C381.018 351.252 380.873 351.831 380.584 352.4C380.295 352.96 379.851 353.557 379.254 354.192L376.608 357.02H381.424V358H375.138ZM383.532 358V357.132L386.906 353.492C387.382 352.969 387.723 352.493 387.928 352.064C388.143 351.635 388.25 351.196 388.25 350.748C388.25 349.6 387.583 349.026 386.248 349.026C385.25 349.026 384.368 349.399 383.602 350.146L383.168 349.25C383.532 348.877 383.994 348.578 384.554 348.354C385.124 348.121 385.721 348.004 386.346 348.004C387.336 348.004 388.092 348.237 388.614 348.704C389.146 349.161 389.412 349.815 389.412 350.664C389.412 351.252 389.268 351.831 388.978 352.4C388.689 352.96 388.246 353.557 387.648 354.192L385.002 357.02H389.818V358H383.532Z" fill="#BDBDBD"/>
<path d="M497.533 358.126C496.404 358.126 495.545 357.692 494.957 356.824C494.369 355.956 494.075 354.701 494.075 353.058C494.075 351.406 494.369 350.151 494.957 349.292C495.545 348.433 496.404 348.004 497.533 348.004C498.672 348.004 499.53 348.433 500.109 349.292C500.697 350.141 500.991 351.392 500.991 353.044C500.991 354.696 500.692 355.956 500.095 356.824C499.507 357.692 498.653 358.126 497.533 358.126ZM497.533 357.132C498.317 357.132 498.896 356.801 499.269 356.138C499.652 355.475 499.843 354.444 499.843 353.044C499.843 351.644 499.656 350.622 499.283 349.978C498.91 349.325 498.326 348.998 497.533 348.998C496.749 348.998 496.166 349.325 495.783 349.978C495.41 350.631 495.223 351.653 495.223 353.044C495.223 354.444 495.41 355.475 495.783 356.138C496.166 356.801 496.749 357.132 497.533 357.132ZM505.928 358.126C504.817 358.126 503.954 357.888 503.338 357.412C502.722 356.927 502.414 356.25 502.414 355.382C502.414 354.775 502.577 354.257 502.904 353.828C503.24 353.399 503.683 353.105 504.234 352.946C503.739 352.759 503.352 352.461 503.072 352.05C502.792 351.639 502.652 351.168 502.652 350.636C502.652 349.805 502.946 349.161 503.534 348.704C504.131 348.237 504.929 348.004 505.928 348.004C506.926 348.004 507.724 348.237 508.322 348.704C508.919 349.161 509.218 349.805 509.218 350.636C509.218 351.168 509.073 351.644 508.784 352.064C508.504 352.475 508.121 352.769 507.636 352.946C508.186 353.105 508.625 353.399 508.952 353.828C509.278 354.257 509.442 354.775 509.442 355.382C509.442 356.25 509.134 356.927 508.518 357.412C507.902 357.888 507.038 358.126 505.928 358.126ZM505.928 352.526C506.609 352.526 507.141 352.367 507.524 352.05C507.916 351.723 508.112 351.285 508.112 350.734C508.112 350.174 507.916 349.74 507.524 349.432C507.141 349.115 506.609 348.956 505.928 348.956C505.246 348.956 504.714 349.115 504.332 349.432C503.949 349.74 503.758 350.174 503.758 350.734C503.758 351.285 503.949 351.723 504.332 352.05C504.714 352.367 505.246 352.526 505.928 352.526ZM505.928 357.174C507.533 357.174 508.336 356.553 508.336 355.312C508.336 354.089 507.533 353.478 505.928 353.478C504.322 353.478 503.52 354.089 503.52 355.312C503.52 356.553 504.322 357.174 505.928 357.174ZM513.984 358L518.338 348.13H519.318L523.672 358H522.482L521.39 355.48H516.252L515.174 358H513.984ZM518.814 349.474L516.672 354.514H520.984L518.842 349.474H518.814ZM524.981 360.52V351.196H526.087V352.414C526.292 351.994 526.596 351.667 526.997 351.434C527.408 351.191 527.884 351.07 528.425 351.07C529.032 351.07 529.559 351.215 530.007 351.504C530.464 351.784 530.814 352.19 531.057 352.722C531.309 353.245 531.435 353.87 531.435 354.598C531.435 355.317 531.309 355.942 531.057 356.474C530.814 356.997 530.464 357.403 530.007 357.692C529.559 357.981 529.032 358.126 528.425 358.126C527.902 358.126 527.436 358.009 527.025 357.776C526.614 357.543 526.311 357.221 526.115 356.81V360.52H524.981ZM528.187 357.216C528.822 357.216 529.33 356.992 529.713 356.544C530.096 356.087 530.287 355.438 530.287 354.598C530.287 353.749 530.096 353.1 529.713 352.652C529.33 352.204 528.822 351.98 528.187 351.98C527.552 351.98 527.044 352.204 526.661 352.652C526.278 353.1 526.087 353.749 526.087 354.598C526.087 355.438 526.278 356.087 526.661 356.544C527.044 356.992 527.552 357.216 528.187 357.216ZM533.143 358V351.196H534.249V352.414C534.613 351.593 535.36 351.14 536.489 351.056L536.895 351.014L536.979 351.994L536.265 352.078C535.621 352.134 535.131 352.339 534.795 352.694C534.459 353.039 534.291 353.515 534.291 354.122V358H533.143ZM541.574 351.07V350.076C541.574 349.693 541.635 349.339 541.756 349.012C541.887 348.685 542.106 348.363 542.414 348.046L542.96 348.452C542.755 348.676 542.606 348.886 542.512 349.082C542.419 349.269 542.363 349.455 542.344 349.642H543.002V351.07H541.574ZM545.138 358V357.132L548.512 353.492C548.988 352.969 549.329 352.493 549.534 352.064C549.749 351.635 549.856 351.196 549.856 350.748C549.856 349.6 549.189 349.026 547.854 349.026C546.855 349.026 545.973 349.399 545.208 350.146L544.774 349.25C545.138 348.877 545.6 348.578 546.16 348.354C546.729 348.121 547.327 348.004 547.952 348.004C548.941 348.004 549.697 348.237 550.22 348.704C550.752 349.161 551.018 349.815 551.018 350.664C551.018 351.252 550.873 351.831 550.584 352.4C550.295 352.96 549.851 353.557 549.254 354.192L546.608 357.02H551.424V358H545.138ZM553.532 358V357.132L556.906 353.492C557.382 352.969 557.723 352.493 557.928 352.064C558.143 351.635 558.25 351.196 558.25 350.748C558.25 349.6 557.583 349.026 556.248 349.026C555.25 349.026 554.368 349.399 553.602 350.146L553.168 349.25C553.532 348.877 553.994 348.578 554.554 348.354C555.124 348.121 555.721 348.004 556.346 348.004C557.336 348.004 558.092 348.237 558.614 348.704C559.146 349.161 559.412 349.815 559.412 350.664C559.412 351.252 559.268 351.831 558.978 352.4C558.689 352.96 558.246 353.557 557.648 354.192L555.002 357.02H559.818V358H553.532Z" fill="#BDBDBD"/>
<path d="M664.069 358V357.02H666.323V349.516L664.545 350.636L664.055 349.782L666.645 348.13H667.471V357.02H669.585V358H664.069ZM674.928 358.126C673.798 358.126 672.94 357.692 672.352 356.824C671.764 355.956 671.47 354.701 671.47 353.058C671.47 351.406 671.764 350.151 672.352 349.292C672.94 348.433 673.798 348.004 674.928 348.004C676.066 348.004 676.925 348.433 677.504 349.292C678.092 350.141 678.386 351.392 678.386 353.044C678.386 354.696 678.087 355.956 677.49 356.824C676.902 357.692 676.048 358.126 674.928 358.126ZM674.928 357.132C675.712 357.132 676.29 356.801 676.664 356.138C677.046 355.475 677.238 354.444 677.238 353.044C677.238 351.644 677.051 350.622 676.678 349.978C676.304 349.325 675.721 348.998 674.928 348.998C674.144 348.998 673.56 349.325 673.178 349.978C672.804 350.631 672.618 351.653 672.618 353.044C672.618 354.444 672.804 355.475 673.178 356.138C673.56 356.801 674.144 357.132 674.928 357.132ZM682.984 358L687.338 348.13H688.318L692.672 358H691.482L690.39 355.48H685.252L684.174 358H682.984ZM687.814 349.474L685.672 354.514H689.984L687.842 349.474H687.814ZM693.981 360.52V351.196H695.087V352.414C695.292 351.994 695.596 351.667 695.997 351.434C696.408 351.191 696.884 351.07 697.425 351.07C698.032 351.07 698.559 351.215 699.007 351.504C699.464 351.784 699.814 352.19 700.057 352.722C700.309 353.245 700.435 353.87 700.435 354.598C700.435 355.317 700.309 355.942 700.057 356.474C699.814 356.997 699.464 357.403 699.007 357.692C698.559 357.981 698.032 358.126 697.425 358.126C696.902 358.126 696.436 358.009 696.025 357.776C695.614 357.543 695.311 357.221 695.115 356.81V360.52H693.981ZM697.187 357.216C697.822 357.216 698.33 356.992 698.713 356.544C699.096 356.087 699.287 355.438 699.287 354.598C699.287 353.749 699.096 353.1 698.713 352.652C698.33 352.204 697.822 351.98 697.187 351.98C696.552 351.98 696.044 352.204 695.661 352.652C695.278 353.1 695.087 353.749 695.087 354.598C695.087 355.438 695.278 356.087 695.661 356.544C696.044 356.992 696.552 357.216 697.187 357.216ZM702.143 358V351.196H703.249V352.414C703.613 351.593 704.36 351.14 705.489 351.056L705.895 351.014L705.979 351.994L705.265 352.078C704.621 352.134 704.131 352.339 703.795 352.694C703.459 353.039 703.291 353.515 703.291 354.122V358H702.143ZM710.574 351.07V350.076C710.574 349.693 710.635 349.339 710.756 349.012C710.887 348.685 711.106 348.363 711.414 348.046L711.96 348.452C711.755 348.676 711.606 348.886 711.512 349.082C711.419 349.269 711.363 349.455 711.344 349.642H712.002V351.07H710.574ZM714.138 358V357.132L717.512 353.492C717.988 352.969 718.329 352.493 718.534 352.064C718.749 351.635 718.856 351.196 718.856 350.748C718.856 349.6 718.189 349.026 716.854 349.026C715.855 349.026 714.973 349.399 714.208 350.146L713.774 349.25C714.138 348.877 714.6 348.578 715.16 348.354C715.729 348.121 716.327 348.004 716.952 348.004C717.941 348.004 718.697 348.237 719.22 348.704C719.752 349.161 720.018 349.815 720.018 350.664C720.018 351.252 719.873 351.831 719.584 352.4C719.295 352.96 718.851 353.557 718.254 354.192L715.608 357.02H720.424V358H714.138ZM722.532 358V357.132L725.906 353.492C726.382 352.969 726.723 352.493 726.928 352.064C727.143 351.635 727.25 351.196 727.25 350.748C727.25 349.6 726.583 349.026 725.248 349.026C724.25 349.026 723.368 349.399 722.602 350.146L722.168 349.25C722.532 348.877 722.994 348.578 723.554 348.354C724.124 348.121 724.721 348.004 725.346 348.004C726.336 348.004 727.092 348.237 727.614 348.704C728.146 349.161 728.412 349.815 728.412 350.664C728.412 351.252 728.268 351.831 727.978 352.4C727.689 352.96 727.246 353.557 726.648 354.192L724.002 357.02H728.818V358H722.532Z" fill="#BDBDBD"/>
<line x1="187.5" y1="337.5" x2="187.5" y2="343.5" stroke="#BDBDBD" stroke-linecap="round"/>
<line x1="357.5" y1="337.5" x2="357.5" y2="343.5" stroke="#BDBDBD" stroke-linecap="round"/>
<line x1="527.5" y1="337.5" x2="527.5" y2="343.5" stroke="#BDBDBD" stroke-linecap="round"/>
<line x1="696.5" y1="337.5" x2="696.5" y2="343.5" stroke="#BDBDBD" stroke-linecap="round"/>
<defs>
<filter id="filter0_d_2_197" x="0" y="0" width="788" height="413" filterUnits="userSpaceOnUse" color-interpolation-filters="sRGB">
<feFlood flood-opacity="0" result="BackgroundImageFix"/>
<feColorMatrix in="SourceAlpha" type="matrix" values="0 0 0 0 0 0 0 0 0 0 0 0 0 0 0 0 0 0 127 0" result="hardAlpha"/>
<feOffset/>
<feGaussianBlur stdDeviation="13"/>
<feComposite in2="hardAlpha" operator="out"/>
<feColorMatrix type="matrix" values="0 0 0 0 0.941176 0 0 0 0 0.945098 0 0 0 0 1 0 0 0 1 0"/>
<feBlend mode="normal" in2="BackgroundImageFix" result="effect1_dropShadow_2_197"/>
<feBlend mode="normal" in="SourceGraphic" in2="effect1_dropShadow_2_197" result="shape"/>
</filter>
<linearGradient id="paint0_linear_2_197" x1="425" y1="199" x2="425" y2="337" gradientUnits="userSpaceOnUse">
<stop stop-color="#545DFF"/>
<stop offset="1" stop-color="#545DFF" stop-opacity="0"/>
</linearGradient>
<clipPath id="clip0_2_197">
<rect width="544" height="207" fill="white" transform="translate(153 130)"/>
</clipPath>
</defs>
</svg>
